<svg width="412" height="230" viewBox="0 0 412 230" fill="none" xmlns="http://www.w3.org/2000/svg">
<path d="M11.6966 147.032C10.3066 145.832 9.50662 143.792 9.29662 140.932L0.0466169 14.0421C-0.163383 11.1821 0.336617 9.05209 1.53662 7.66209C2.73662 6.27209 4.77662 5.47208 7.63662 5.26208L79.4666 0.0220845C81.6466 -0.137915 83.2766 0.572085 84.3566 2.13209C85.4266 3.70209 86.0966 6.26208 86.3566 9.80208L86.8166 16.1421C87.0766 19.6921 86.7866 22.3221 85.9466 24.0221C85.1066 25.7321 83.5966 26.6621 81.4166 26.8221L32.9166 30.3621L35.0766 60.0421L78.0566 56.9121C80.2366 56.7521 81.8666 57.4521 82.9466 59.0221C84.0166 60.5921 84.6866 63.1521 84.9466 66.6921L85.4066 73.0321C85.6666 76.5821 85.3766 79.2121 84.5366 80.9121C83.6966 82.6221 82.1866 83.5521 80.0066 83.7121L37.0266 86.8421L39.4466 119.992L88.1566 116.442C90.3366 116.282 91.9666 116.982 93.0466 118.552C94.1166 120.122 94.7866 122.682 95.0466 126.222L95.5066 132.562C95.7666 136.112 95.4766 138.732 94.6366 140.442C93.7966 142.152 92.2866 143.082 90.1066 143.242L18.0666 148.492C15.2166 148.722 13.0866 148.232 11.6966 147.032Z" fill="#425CC7"/>
<path d="M160.437 191.772L121.047 58.272C120.567 56.342 120.347 55.102 120.367 54.552C120.477 51.542 124.707 50.192 133.047 50.502L139.817 50.752C146.647 51.002 150.607 53.142 151.697 57.152L176.077 146.972L178.067 154.232L178.887 154.262L181.407 147.172L213.207 59.442C214.717 55.532 218.827 53.692 225.527 53.942L231.887 54.182C240.087 54.492 244.137 56.142 244.027 59.152C243.987 60.112 243.737 61.332 243.277 62.822L194.087 193.022C193.027 195.862 189.137 197.152 182.447 196.902L171.787 196.502C165.057 196.252 161.287 194.672 160.437 191.772Z" fill="#F26178"/>
<path d="M272.347 159.512L265.907 28.3421C265.687 23.8321 269.677 21.3821 277.877 20.9721L285.047 20.6221C293.247 20.2221 297.457 22.2721 297.677 26.7821L304.117 157.952C304.337 162.462 300.357 164.912 292.157 165.322L284.987 165.672C276.777 166.072 272.567 164.012 272.347 159.512Z" fill="#FFCD00"/>
<path d="M330.687 222.322C329.477 220.942 328.967 218.812 329.167 215.942L337.897 86.962C338.197 82.592 342.437 80.692 350.627 81.242L357.587 81.712C365.777 82.262 369.717 84.732 369.427 89.092L361.957 199.442L406.177 202.432C408.357 202.582 409.877 203.502 410.717 205.202C411.557 206.902 411.867 209.532 411.627 213.082L411.197 219.432C410.957 222.982 410.297 225.542 409.237 227.112C408.167 228.682 406.547 229.402 404.367 229.252L336.807 224.682C333.937 224.492 331.897 223.702 330.687 222.322Z" fill="#19D3C5"/>
</svg>
