<?xml version="1.0" encoding="utf-8"?>
<!-- Generator: Adobe Illustrator 25.2.2, SVG Export Plug-In . SVG Version: 6.00 Build 0)  -->
<svg version="1.1" id="Layer_1" xmlns="http://www.w3.org/2000/svg" xmlns:xlink="http://www.w3.org/1999/xlink" x="0px" y="0px"
	 viewBox="0 0 160.23 160.23" style="enable-background:new 0 0 160.23 160.23;" xml:space="preserve">
<style type="text/css">
</style>
<path  d="M80.11,1c43.62,0,79.11,35.49,79.11,79.11s-35.49,79.11-79.11,79.11C36.49,159.23,1,123.74,1,80.11
	S36.49,1,80.11,1 M80.11,0C35.87,0,0,35.87,0,80.11s35.87,80.11,80.11,80.11c44.25,0,80.11-35.87,80.11-80.11S124.36,0,80.11,0
	L80.11,0z" stroke='current'/>
<path  d="M79.99,122.9c-15.98,0-29.74-10.84-33.46-26.36c-0.06-0.27,0.1-0.54,0.37-0.6c0.27-0.06,0.54,0.1,0.6,0.37
	c3.61,15.07,16.97,25.59,32.49,25.59c15.8,0,29.57-11.22,32.73-26.67c0.06-0.27,0.33-0.45,0.59-0.39c0.27,0.06,0.44,0.32,0.39,0.59
	C110.44,111.35,96.27,122.9,79.99,122.9z" stroke='current' />
<g>
	<circle  cx="106.73" cy="69.85" r="3.95" stroke='current' />
</g>
<g>
	<circle  cx="53.25" cy="69.85" r="3.95" stroke='current' />
</g>
</svg>
