<?xml version="1.0" encoding="utf-8"?>
<!-- Generator: Adobe Illustrator 25.2.2, SVG Export Plug-In . SVG Version: 6.00 Build 0)  -->
<svg version="1.1" id="Layer_1" xmlns="http://www.w3.org/2000/svg" xmlns:xlink="http://www.w3.org/1999/xlink" x="0px" y="0px"
	 viewBox="0 0 237.82 237.82" style="enable-background:new 0 0 237.82 237.82;" xml:space="preserve">
<style type="text/css">
	.st0{fill:none;stroke:#FACD01;stroke-miterlimit:10;}
</style>
<g>
	<line class="st0" x1="118.91" y1="0" x2="118.91" y2="21.97"/>
</g>
<g>
	<line class="st0" x1="0" y1="118.91" x2="21.97" y2="118.91"/>
</g>
<g>
	<line class="st0" x1="35.18" y1="35.18" x2="50.72" y2="50.72"/>
</g>
<g>
	<line class="st0" x1="237.82" y1="118.91" x2="215.85" y2="118.91"/>
</g>
<g>
	<line class="st0" x1="202.64" y1="35.18" x2="187.1" y2="50.72"/>
</g>
<g>
	<line class="st0" x1="35.18" y1="202.64" x2="50.72" y2="187.1"/>
</g>
<g>
	<line class="st0" x1="118.91" y1="237.82" x2="118.91" y2="215.85"/>
</g>
<g>
	<line class="st0" x1="202.64" y1="202.64" x2="187.1" y2="187.1"/>
</g>
<g>
	<line class="st0" x1="163.83" y1="8.81" x2="155.53" y2="29.16"/>
</g>
<g>
	<line class="st0" x1="8.81" y1="74" x2="29.16" y2="82.3"/>
</g>
<g>
	<line class="st0" x1="73.01" y1="9.76" x2="81.53" y2="30.01"/>
</g>
<g>
	<line class="st0" x1="229.02" y1="163.83" x2="208.67" y2="155.53"/>
</g>
<g>
	<line class="st0" x1="228.07" y1="73.01" x2="207.81" y2="81.53"/>
</g>
<g>
	<line class="st0" x1="9.76" y1="164.81" x2="30.01" y2="156.3"/>
</g>
<g>
	<line class="st0" x1="74" y1="229.02" x2="82.3" y2="208.67"/>
</g>
<g>
	<line class="st0" x1="164.81" y1="228.07" x2="156.3" y2="207.81"/>
</g>
</svg>
